<svg xmlns="http://www.w3.org/2000/svg" viewBox="0 0 128 128"><path d="M124.8 52.1c-4.3-2.5-10-2.8-14.8-1.4-.6-5.2-4-9.7-8-12.9l-1.6-1.3-1.4 1.6c-2.7 3.1-3.5 8.3-3.1 12.3.3 2.9 1.2 5.9 3 8.3-1.4.8-2.9 1.9-4.3 2.4-2.8 1-5.9 2-8.9 2H79V36h-9.8V21.5H59V10H39.2v11.5H29.3v15.8h-9.8V52H2.9l-.3 1.6c-.6 5.7.1 11.4 2.5 16.7l.8 1.5.1.2c7.1 12.1 19.8 17.3 33.3 17.3 26.7 0 49.1-12.3 59.2-38.3 4.8.7 10.2-.2 13.8-3.7l.8-.7-2.3-1.5z" fill="#019BC6"/><path d="M28 39.5h8v8h-8zm10.3 0h8v8h-8zm10.3 0h8v8h-8zm10.2 0h8v8h-8zM38.3 29h8v8h-8zm10.3 0h8v8h-8zm10.2 0h8v8h-8zM48.6 18.6h8v8h-8zM38.3 50h8v8h-8zm-10.3 0h8v8h-8zm-10.2 0h8v8h-8zm-10.3 0h8v8h-8zm10.3 0" fill="#fff"/></svg>
