<svg xmlns="http://www.w3.org/2000/svg" viewBox="0 0 128 128"><path d="M18.8 69.8s-.6-.4.4-.8c0 0 6.4-4.4 9.2-4.4 0 0 .8-.2 1.4.6l1.2 1.6s-4 2.4-6.4 4c-2.4 1.6-5.8-1-5.8-1z" fill="#00ACD7"/><path d="M108.8 62.4s.6-.4-.4-.8c0 0-6.4-4.4-9.2-4.4 0 0-.8-.2-1.4.6l-1.2 1.6s4 2.4 6.4 4c2.4 1.6 5.8-1 5.8-1z" fill="#00ACD7"/><path d="M73.6 32s1.2-7.6-1.2-9.2c-2.4-1.6-13.6-2-19.2 10.4 0 0-4.8 10-2 21.2.4 1.6 2 3.2 5.2 2 3.2-1.2 13.6-6 15.6-11.6 2-5.6 1.6-12.8 1.6-12.8z" fill="#00ACD7"/><path d="M64 23.2c-15.6 0-36.8 11.6-36.8 36s24.8 46.8 36.8 46.8 36.8-22 36.8-46.8S79.6 23.2 64 23.2z" fill="#00ACD7" fill-opacity=".85"/><ellipse cx="52.4" cy="49.2" rx="4.8" ry="6" fill="#fff"/><ellipse cx="52.4" cy="49.2" rx="2.4" ry="3.2" fill="#1A1A1A"/><ellipse cx="75.6" cy="49.2" rx="4.8" ry="6" fill="#fff"/><ellipse cx="75.6" cy="49.2" rx="2.4" ry="3.2" fill="#1A1A1A"/><path d="M64 68c-5.2 0-9.6-1.2-9.6-1.2s1.6 8 9.6 8 9.6-8 9.6-8-4.4 1.2-9.6 1.2z" fill="#1A1A1A"/></svg>
