<svg xmlns="http://www.w3.org/2000/svg" viewBox="0 0 128 128"><path d="M62.271 1.598a2.554 2.554 0 013.458 0l5.889 5.478a2.554 2.554 0 002.867.44l7.476-3.73a2.554 2.554 0 013.168 1.19l3.304 7.669a2.554 2.554 0 002.377 1.494l8.378.264a2.554 2.554 0 012.347 2.856l-1.18 8.29a2.554 2.554 0 001.227 2.56l7.19 4.36a2.554 2.554 0 01.81 3.38l-4.3 7.181a2.554 2.554 0 00.042 2.854l4.892 6.824a2.554 2.554 0 01-.463 3.453l-6.37 5.04a2.554 2.554 0 00-.889 2.73l2.14 8.078a2.554 2.554 0 01-1.684 3.035l-8.115 2.425a2.554 2.554 0 00-1.711 2.094l-.768 8.351a2.554 2.554 0 01-2.675 2.324l-8.37-.454a2.554 2.554 0 00-2.359 1.252l-4.086 7.255a2.554 2.554 0 01-3.289 1.064l-7.306-3.946a2.554 2.554 0 00-2.846.105l-6.56 5.174a2.554 2.554 0 01-3.455-.2l-5.56-5.821a2.554 2.554 0 00-2.787-.6l-7.682 3.254a2.554 2.554 0 01-3.26-1.425l-2.888-7.863a2.554 2.554 0 00-2.474-1.619l-8.38.079a2.554 2.554 0 01-2.528-2.696l.837-8.337a2.554 2.554 0 00-1.36-2.468l-7.364-4.051a2.554 2.554 0 01-1.03-3.299l3.995-7.365a2.554 2.554 0 00-.177-2.847l-5.175-6.573a2.554 2.554 0 01.224-3.475l6.132-5.31a2.554 2.554 0 00.754-2.773l-2.482-7.97a2.554 2.554 0 011.469-3.116l7.975-2.76a2.554 2.554 0 001.604-2.19l.42-8.376a2.554 2.554 0 012.518-2.44l8.368.11a2.554 2.554 0 002.278-1.372l3.74-7.46a2.554 2.554 0 013.2-1.232l7.49 3.568a2.554 2.554 0 002.858-.258z" fill="#000"/><text x="64" y="82" text-anchor="middle" fill="#fff" font-family="Arial Black" font-size="50" font-weight="bold">R</text></svg>
