<svg xmlns="http://www.w3.org/2000/svg" viewBox="0 0 109 113"><defs><linearGradient id="a" x1="54%" y1="0%" x2="54%" y2="100%"><stop offset="0%" stop-color="#249361"/><stop offset="100%" stop-color="#3ECF8E"/></linearGradient><linearGradient id="b" x1="50%" y1="0%" x2="50%" y2="100%"><stop offset="0%" stop-color="#C8C8C8"/><stop offset="100%" stop-color="#fff"/></linearGradient></defs><path d="M63.7 110.3c-2.6 3.2-8 1.4-8.1-2.7l-1.2-56.9h38.9c7 0 10.9 8.2 6.5 13.7L63.7 110.3z" fill="url(#a)"/><path d="M63.7 110.3c-2.6 3.2-8 1.4-8.1-2.7l-1.2-56.9h38.9c7 0 10.9 8.2 6.5 13.7L63.7 110.3z" fill="url(#a)" fill-opacity=".2"/><path d="M45.3 2.7c2.6-3.2 8-1.4 8.1 2.7l.4 56.9H15.9c-7 0-10.9-8.2-6.5-13.7L45.3 2.7z" fill="url(#b)"/></svg>
