<svg xmlns="http://www.w3.org/2000/svg" viewBox="0 0 128 128"><rect width="128" height="128" rx="10" fill="#3178C6"/><path d="M82.82 89.02c0 4.36 2.28 7.7 6.24 9.75 3.96 2.05 8.84 2.56 14.56 2.56 5.64 0 10.44-1.2 14.36-3.36 3.92-2.16 5.88-6.04 5.88-10.76 0-3.4-1-6.16-3-8.28s-5.56-4-10.68-5.72c-3.68-1.28-6.2-2.4-7.56-3.24-1.36-.84-2.04-2.08-2.04-3.68 0-1.4.6-2.56 1.8-3.44 1.2-.88 2.84-1.32 4.92-1.32 2.24 0 4.04.6 5.4 1.8 1.36 1.2 2.24 2.6 2.64 4.44l8.48-3.48c-1.16-3.64-3.24-6.36-6.24-8.16-3-1.8-6.56-2.72-10.68-2.72-5.32 0-9.68 1.36-13.08 4.08-3.4 2.72-5.12 6.16-5.12 10.32 0 3.16.92 5.76 2.76 7.8s5.16 3.8 9.96 5.28c3.88 1.2 6.56 2.4 8.04 3.48s2.2 2.48 2.2 4.16c0 1.64-.72 2.92-2.16 3.84-1.44.92-3.36 1.4-5.76 1.4-2.68 0-4.84-.76-6.48-2.28-1.64-1.52-2.76-3.4-3.36-5.64l-8.96 3.6zM28 57.96h13.12v42.8h10.32v-42.8H64.4v-8.68H28v8.68z" fill="#fff"/></svg>
